#N canvas 485 37 842 669 12;
#X obj 8 8 tgl 15 0 empty empty empty 17 7 0 10 -262144 -1 -1 0 1;
#X obj 8 31 metro;
#X obj 63 8 nbx 5 14 0 200 0 0 empty empty empty 0 -8 0 10 -262144
-1 -1 200 256;
#X obj 8 58 f;
#X obj 8 112 hradio 15 1 0 16 empty empty empty 0 -8 0 10 -262144 -1
-1 5;
#X obj 8 85 mod 16;
#X obj 8 136 select 0 1 2 3 4 5 6 7 8 9 10 11 12 13 14 15;
#X obj 43 57 + 1;
#X obj 413 16 vsl 15 128 0 127 0 0 empty empty empty 0 -9 0 10 -262144
-1 -1 0 1;
#X obj 430 16 vsl 15 128 0 127 0 0 empty empty empty 0 -9 0 10 -262144
-1 -1 0 1;
#X obj 447 16 vsl 15 128 0 127 0 0 empty empty empty 0 -9 0 10 -262144
-1 -1 0 1;
#X obj 464 16 vsl 15 128 0 127 0 0 empty empty empty 0 -9 0 10 -262144
-1 -1 0 1;
#X obj 481 16 vsl 15 128 0 127 0 0 empty empty empty 0 -9 0 10 -262144
-1 -1 0 1;
#X obj 396 16 vsl 15 128 0 127 0 0 empty empty empty 0 -9 0 10 -262144
-1 -1 0 1;
#X obj 379 16 vsl 15 128 0 127 0 0 empty empty empty 0 -9 0 10 -262144
-1 -1 0 1;
#X obj 532 16 vsl 15 128 0 127 0 0 empty empty empty 0 -9 0 10 -262144
-1 -1 0 1;
#X obj 549 16 vsl 15 128 0 127 0 0 empty empty empty 0 -9 0 10 -262144
-1 -1 0 1;
#X obj 566 16 vsl 15 128 0 127 0 0 empty empty empty 0 -9 0 10 -262144
-1 -1 0 1;
#X obj 583 16 vsl 15 128 0 127 0 0 empty empty empty 0 -9 0 10 -262144
-1 -1 0 1;
#X obj 600 16 vsl 15 128 0 127 0 0 empty empty empty 0 -9 0 10 -262144
-1 -1 0 1;
#X obj 515 16 vsl 15 128 0 127 0 0 empty empty empty 0 -9 0 10 -262144
-1 -1 0 1;
#X obj 498 16 vsl 15 128 0 127 0 0 empty empty empty 0 -9 0 10 -262144
-1 -1 0 1;
#X obj 634 16 vsl 15 128 0 127 0 0 empty empty empty 0 -9 0 10 -262144
-1 -1 0 1;
#X obj 617 16 vsl 15 128 0 127 0 0 empty empty empty 0 -9 0 10 -262144
-1 -1 0 1;
#X obj 8 271 f, f 1;
#X obj 27 271 f, f 1;
#X obj 46 271 f, f 1;
#X obj 65 271 f, f 1;
#X obj 84 271 f, f 1;
#X obj 103 271 f, f 1;
#X obj 123 271 f, f 1;
#X obj 142 271 f, f 1;
#X obj 161 271 f, f 1;
#X obj 180 271 f, f 1;
#X obj 199 271 f, f 1;
#X obj 218 271 f, f 1;
#X obj 237 271 f, f 1;
#X obj 255 271 f, f 1;
#X obj 275 271 f, f 1;
#X obj 294 271 f, f 1;
#X obj 19 404 mtof;
#X obj 19 455 phasor~;
#X obj 20 509 bp~ 220 5;
#X obj 76 455 * 1.5;
#X obj 21 569 dac~;
#X connect 0 0 1 0;
#X connect 1 0 3 0;
#X connect 2 0 1 1;
#X connect 3 0 5 0;
#X connect 3 0 7 0;
#X connect 4 0 6 0;
#X connect 5 0 4 0;
#X connect 6 0 24 0;
#X connect 6 1 25 0;
#X connect 6 2 26 0;
#X connect 6 3 27 0;
#X connect 6 4 28 0;
#X connect 6 5 29 0;
#X connect 6 6 30 0;
#X connect 6 7 31 0;
#X connect 6 8 32 0;
#X connect 6 9 33 0;
#X connect 6 10 34 0;
#X connect 6 11 35 0;
#X connect 6 12 36 0;
#X connect 6 13 37 0;
#X connect 6 14 38 0;
#X connect 6 15 39 0;
#X connect 7 0 3 1;
#X connect 8 0 26 1;
#X connect 9 0 27 1;
#X connect 10 0 28 1;
#X connect 11 0 29 1;
#X connect 12 0 30 1;
#X connect 13 0 25 1;
#X connect 14 0 24 1;
#X connect 15 0 33 1;
#X connect 16 0 34 1;
#X connect 17 0 35 1;
#X connect 18 0 36 1;
#X connect 19 0 37 1;
#X connect 20 0 32 1;
#X connect 21 0 31 1;
#X connect 22 0 39 1;
#X connect 23 0 38 1;
#X connect 24 0 40 0;
#X connect 40 0 41 0;
#X connect 40 0 43 0;
#X connect 41 0 42 0;
#X connect 42 0 44 0;
#X connect 42 0 44 1;
#X connect 43 0 42 1;
