#N canvas 553 175 665 397 12;
#X obj 37 37 inlet;
#X obj 37 330 outlet;
#X obj 37 96 f 0;
#X obj 36 138 % 8;
#X obj 179 150 table pitches;
#X obj 37 188 tabread pitches;
#X floatatom 37 241 5 0 0 0 - - -;
#X obj 37 117 + 1;
#X floatatom 37 159 5 0 0 0 - - -;
#X obj 116 112 random 24;
#X msg 176 173 \; pitches 0 60 67 62 58 63 70 72 65 80 48 51 75 82
84;
#X obj 37 209 - 0;
#X obj 37 261 sel 0;
#X connect 0 0 2 0;
#X connect 0 0 9 0;
#X connect 2 0 7 0;
#X connect 3 0 2 1;
#X connect 3 0 8 0;
#X connect 5 0 11 0;
#X connect 6 0 12 0;
#X connect 7 0 3 0;
#X connect 8 0 5 0;
#X connect 9 0 8 0;
#X connect 11 0 6 0;
#X connect 12 1 1 0;
