#N canvas 401 28 849 802 12;
#X obj 33 184 f;
#X obj 109 310 hradio 15 1 0 16 sequencer_grid_snd sequencer_grid_rcv
empty 0 -8 0 10 -262144 -1 -1 11;
#X floatatom 482 171 5 2 20 0 - - -;
#X text 526 228 number of buttons;
#X msg 482 254 \; sequencer_grid_rcv number \$16;
#X obj 109 352 hradio 15 1 0 16 sequencer_grid_snd sequencer_grid_rcv
empty 0 -8 0 10 -262144 -1 -1 0;
#X obj 109 396 hradio 15 1 0 16 sequencer_grid_snd sequencer_grid_rcv
empty 0 -8 0 10 -262144 -1 -1 0;
#X obj 109 445 hradio 15 1 0 16 sequencer_grid_snd sequencer_grid_rcv
empty 0 -8 0 10 -262144 -1 -1 0;
#X obj 33 231 mod 16;
#X obj 134 184 f;
#X obj 169 184 + 1;
#X obj 127 232 mod 16;
#X obj 95 21 inlet;
#X obj 176 80 * 4;
#X obj 214 81 * 8;
#X obj 217 184 f;
#X obj 252 184 + 1;
#X obj 217 231 mod 16;
#X obj 318 184 f;
#X obj 353 184 + 1;
#X obj 318 231 mod 16;
#X obj 68 184 + 1;
#X obj 27 601 select 0 1 2 3 4 5 6 7 8 9 10 11 12 13 14 15;
#X connect 0 0 8 0;
#X connect 0 0 21 0;
#X connect 1 0 22 0;
#X connect 2 0 4 0;
#X connect 8 0 1 0;
#X connect 9 0 10 0;
#X connect 9 0 11 0;
#X connect 10 0 9 1;
#X connect 12 0 13 0;
#X connect 12 0 14 0;
#X connect 12 0 0 0;
#X connect 13 0 15 0;
#X connect 14 0 18 0;
#X connect 15 0 16 0;
#X connect 15 0 17 0;
#X connect 16 0 15 1;
#X connect 18 0 19 0;
#X connect 18 0 20 0;
#X connect 19 0 18 1;
#X connect 21 0 0 1;
#X coords 0 -1 1 1 260 260 2 100 300;
