#N canvas 577 74 569 486 12;
#X obj 34 47 f;
#X obj 155 68 hradio 15 1 0 16 sequence_snd sequence_rcv empty 0 -8
0 10 -262144 -1 -1 0;
#X obj 132 183 select 0 1 2 3 4 5 6 7 8 9 10 11 12 13 14 15;
#X obj 69 47 + 1;
#X obj 34 17 inlet;
#X obj 215 265 outlet;
#X floatatom 156 134 5 1 16 0 - - -;
#X msg 43 344 \; sequence_rcv number \$1;
#X obj 35 126 mod \$1;
#X connect 0 0 3 0;
#X connect 0 0 8 0;
#X connect 1 0 2 0;
#X connect 2 0 5 0;
#X connect 2 1 5 0;
#X connect 2 2 5 0;
#X connect 2 3 5 0;
#X connect 2 4 5 0;
#X connect 2 5 5 0;
#X connect 2 6 5 0;
#X connect 2 7 5 0;
#X connect 2 8 5 0;
#X connect 2 9 5 0;
#X connect 2 10 5 0;
#X connect 2 11 5 0;
#X connect 2 12 5 0;
#X connect 2 13 5 0;
#X connect 2 14 5 0;
#X connect 2 15 5 0;
#X connect 3 0 0 1;
#X connect 4 0 0 0;
#X connect 6 0 7 0;
#X connect 6 0 8 1;
#X connect 8 0 1 0;
#X coords 0 -1 1 1 300 100 2 150 60;
