#N canvas 808 117 450 300 12;
#X obj 78 87 tgl 15 0 empty empty empty 17 7 0 10 -262144 -1 -1 0 1
;
#X obj 79 181 metro;
#X obj 111 135 nbx 5 14 130 200 0 0 empty empty empty 0 -8 0 10 -262144
-1 -1 200 256;
#X obj 78 11 key 32;
#X obj 78 49 sel 32;
#X obj 79 219 outlet;
#X text 109 106 BPM;
#X connect 0 0 1 0;
#X connect 1 0 5 0;
#X connect 2 0 1 1;
#X connect 3 0 4 0;
#X connect 4 0 0 0;
#X coords 0 -1 1 1 85 60 2 100 100;
