#N canvas 266 42 328 293 10;
#X obj 103 19 notein;
#X obj 103 40 stripnote;
#X obj 103 61 sel 64 63;
#X obj 44 149 f;
#X obj 73 181 + 1;
#X obj 102 181 - 1;
#X floatatom 44 243 5 0 0 0 - - -;
#X obj 139 107 t b f;
#X obj 103 107 t b f;
#X floatatom 44 19 5 0 0 0 - - -;
#X obj 131 183 hradio 15 1 0 3 empty empty empty 0 -8 0 10 -262144
-1 -1 0;
#X obj 44 204 multiplex 0 1 2;
#X msg 103 84 1;
#X msg 139 84 2;
#X obj 44 61 t f b;
#X msg 71 84 0;
#X connect 0 0 1 0;
#X connect 0 1 1 1;
#X connect 1 0 2 0;
#X connect 2 0 12 0;
#X connect 2 1 13 0;
#X connect 3 0 4 0;
#X connect 3 0 5 0;
#X connect 3 0 11 0;
#X connect 4 0 11 1;
#X connect 5 0 11 2;
#X connect 7 0 3 0;
#X connect 7 1 10 0;
#X connect 8 0 3 0;
#X connect 8 1 10 0;
#X connect 9 0 14 0;
#X connect 10 0 11 3;
#X connect 11 0 3 1;
#X connect 11 0 6 0;
#X connect 12 0 8 0;
#X connect 13 0 7 0;
#X connect 14 0 3 0;
#X connect 14 1 15 0;
#X connect 15 0 10 0;
